<svg id="Layer_1" data-name="Layer 1" width="172" height="48" viewBox="0 0 172 48" fill="none" xmlns="http://www.w3.org/2000/svg">
<defs><style>.cls-1{fill:#2c5234;}</style></defs><title>Appvia Logo Color Mark Only</title>
<path d="M30.28 4.53735L13.4226 0.0179752C13.2462 -0.0295257 13.0596 0.0179751 12.9307 0.150299L1.67774 11.4012L0.585349 12.4938C0.456434 12.6227 0.405546 12.8093 0.453041 12.9857L4.97187 29.8452C5.01936 30.0216 5.15845 30.1573 5.33147 30.2048L22.1889 34.7242C22.3653 34.7717 22.5519 34.7242 22.6808 34.5919L23.7732 33.4993L35.0227 22.2484C35.1517 22.1195 35.2025 21.9329 35.155 21.7564L30.6362 4.897C30.5887 4.72057 30.4496 4.58485 30.2766 4.53735H30.28ZM19.9803 26.7915L17.609 17.9326C17.5615 17.7562 17.4224 17.6205 17.2494 17.573L8.39152 15.2013C8.01156 15.0995 7.88603 14.6245 8.16422 14.3463L13.348 9.1619C13.4769 9.03297 13.6635 8.98208 13.8399 9.02958L23.2643 11.5539C23.4407 11.6014 23.5764 11.7405 23.6239 11.9136L26.1479 21.3391C26.1954 21.5155 26.1479 21.7021 26.0156 21.8311L20.8319 27.0155C20.5537 27.2937 20.0787 27.1647 19.9769 26.7881L19.9803 26.7915Z" fill="url(#paint0_linear_3307_56234)"/>
<path d="M61.2786 27.0109V24.965C60.7459 25.6029 59.8537 26.2068 58.6086 26.7734C57.3602 27.34 56.0643 27.6217 54.7242 27.6217C52.9533 27.6217 51.2808 27.1331 49.7033 26.1491C48.1258 25.1686 46.857 23.8419 45.8969 22.1658C44.9334 20.4931 44.4551 18.6745 44.4551 16.7134C44.4551 14.7523 44.9436 12.9405 45.9274 11.2746C46.9079 9.61202 48.2343 8.29557 49.9102 7.32519C51.5827 6.35482 53.4011 5.86963 55.362 5.86963C57.3229 5.86963 59.1107 6.35482 60.7188 7.32519C62.3302 8.29557 63.5956 9.61202 64.5252 11.2746C65.4513 12.9371 65.9161 14.7523 65.9161 16.7134V27.0143H61.2786V27.0109ZM50.0833 20.1335C50.6362 21.1581 51.3826 21.969 52.3223 22.5662C53.262 23.1634 54.273 23.4619 55.362 23.4619C56.451 23.4619 57.462 23.1634 58.4017 22.5662C59.3414 21.969 60.0844 21.1581 60.6408 20.1335C61.1937 19.1088 61.4719 17.9688 61.4719 16.71C61.4719 15.4512 61.1937 14.3418 60.6408 13.3205C60.0878 12.2958 59.3414 11.4917 58.4017 10.9047C57.462 10.3178 56.451 10.026 55.362 10.026C54.273 10.026 53.262 10.3178 52.3223 10.9047C51.3826 11.4917 50.6362 12.2958 50.0833 13.3205C49.5303 14.3451 49.2521 15.475 49.2521 16.71C49.2521 17.945 49.5303 19.1088 50.0833 20.1335Z" fill="#022859"/>
<path d="M71.1439 11.2746C72.0701 9.61202 73.3389 8.29557 74.9503 7.32519C76.5617 6.35482 78.3462 5.86963 80.3071 5.86963C82.268 5.86963 84.0863 6.35482 85.7622 7.32519C87.4348 8.29557 88.7646 9.61202 89.7451 11.2746C90.7255 12.9371 91.2174 14.7523 91.2174 16.7134C91.2174 18.6745 90.7357 20.4931 89.779 22.1692C88.8189 23.8419 87.5501 25.172 85.9726 26.1525C84.3951 27.1331 82.7226 27.625 80.9517 27.625C79.6082 27.625 78.3123 27.34 77.0672 26.7768C75.8188 26.2102 74.93 25.6097 74.3973 24.9684V33.4134H69.7598V16.7134C69.7598 14.7523 70.2245 12.9405 71.1507 11.2746H71.1439ZM75.0283 20.1369C75.5813 21.1615 76.3277 21.9724 77.2674 22.5696C78.2071 23.1667 79.2181 23.4653 80.3071 23.4653C81.3961 23.4653 82.407 23.1667 83.3468 22.5696C84.2865 21.9724 85.0329 21.1615 85.5858 20.1369C86.1388 19.1122 86.417 17.9722 86.417 16.7134C86.417 15.4546 86.1388 14.3451 85.5858 13.3239C85.0329 12.2992 84.2865 11.4951 83.3468 10.9081C82.407 10.3211 81.3961 10.0294 80.3071 10.0294C79.2181 10.0294 78.2071 10.3211 77.2674 10.9081C76.3277 11.4951 75.5813 12.2992 75.0283 13.3239C74.4754 14.3485 74.1972 15.4784 74.1972 16.7134C74.1972 17.9484 74.4754 19.1122 75.0283 20.1369Z" fill="#022859"/>
<path d="M95.8041 11.2746C96.7302 9.61202 97.999 8.29557 99.6105 7.32519C101.222 6.35482 103.006 5.86963 104.967 5.86963C106.928 5.86963 108.746 6.35482 110.422 7.32519C112.095 8.29557 113.421 9.61202 114.405 11.2746C115.386 12.9371 115.878 14.7523 115.878 16.7134C115.878 18.6745 115.399 20.4931 114.439 22.1692C113.479 23.8419 112.21 25.172 110.633 26.1525C109.055 27.1331 107.383 27.625 105.612 27.625C104.268 27.625 102.972 27.34 101.727 26.7768C100.479 26.2102 99.5901 25.6097 99.0575 24.9684V33.4134H94.4199V16.7134C94.4199 14.7523 94.8847 12.9405 95.8109 11.2746H95.8041ZM99.6885 20.1369C100.241 21.1615 100.988 21.9724 101.928 22.5696C102.867 23.1667 103.878 23.4653 104.967 23.4653C106.056 23.4653 107.067 23.1667 108.007 22.5696C108.947 21.9724 109.69 21.1615 110.246 20.1369C110.799 19.1122 111.077 17.9722 111.077 16.7134C111.077 15.4546 110.799 14.3451 110.246 13.3239C109.693 12.2992 108.947 11.4951 108.007 10.9081C107.067 10.3211 106.056 10.0294 104.967 10.0294C103.878 10.0294 102.867 10.3211 101.928 10.9081C100.988 11.4951 100.241 12.2992 99.6885 13.3239C99.1355 14.3485 98.8573 15.4784 98.8573 16.7134C98.8573 17.9484 99.1355 19.1122 99.6885 20.1369Z" fill="#022859"/>
<path d="M121.149 6.22363L127.161 21.8005L133.142 6.22363H137.779L129.464 27.0155H124.827L116.512 6.22363H121.149Z" fill="#022859"/>
<path d="M145.938 6.22363V27.0155H141.301V6.22363H145.938Z" fill="#022859"/>
<path d="M166.922 27.0124V24.9664C166.389 25.6043 165.497 26.2082 164.252 26.7749C163.003 27.3415 161.707 27.6231 160.367 27.6231C158.596 27.6231 156.924 27.1345 155.346 26.1506C153.769 25.17 152.5 23.8434 151.54 22.1673C150.58 20.4946 150.102 18.676 150.102 16.7115C150.102 14.747 150.59 12.9385 151.574 11.2726C152.554 9.61007 153.881 8.29362 155.557 7.32324C157.229 6.35286 159.048 5.86768 161.012 5.86768C162.976 5.86768 164.761 6.35286 166.369 7.32324C167.98 8.29362 169.246 9.61007 170.175 11.2726C171.101 12.9351 171.566 14.7503 171.566 16.7115V27.0124H166.928H166.922ZM155.726 20.1349C156.279 21.1596 157.026 21.9705 157.965 22.5676C158.905 23.1648 159.916 23.4634 161.005 23.4634C162.094 23.4634 163.105 23.1648 164.045 22.5676C164.985 21.9705 165.727 21.1596 166.284 20.1349C166.837 19.1103 167.115 17.9702 167.115 16.7115C167.115 15.4527 166.837 14.3432 166.284 13.3219C165.731 12.2973 164.985 11.4931 164.045 10.9062C163.105 10.3192 162.094 10.0274 161.005 10.0274C159.916 10.0274 158.905 10.3192 157.965 10.9062C157.026 11.4931 156.279 12.2973 155.726 13.3219C155.173 14.3466 154.895 15.4764 154.895 16.7115C154.895 17.9465 155.173 19.1103 155.726 20.1349Z" fill="#022859"/>
<path d="M119.183 38.2197L117.056 45.3821H116.035L113.195 36.6555H114.288L116.537 43.8926L118.674 36.6555H119.668L121.806 43.8926L124.055 36.6555H125.123L122.308 45.3821H121.286L119.173 38.2197H119.183Z" fill="#022859"/>
<path d="M129.123 40.826C128.913 40.2492 128.411 40.0151 127.773 40.0151C126.986 40.0151 126.545 40.334 126.264 40.9244L125.415 40.5071C125.785 39.6724 126.62 39.082 127.824 39.082C129.028 39.082 129.816 39.574 130.097 40.4833C130.172 40.7412 130.209 41.0228 130.209 41.3315V45.3861H129.225V44.4632C128.855 45.1146 128.255 45.5184 127.359 45.5184C126.08 45.5184 125.27 44.7448 125.27 43.6252C125.27 42.4071 126.141 41.6946 127.726 41.6946H129.225V41.4842C129.225 41.2264 129.188 41.0058 129.127 40.8192L129.123 40.826ZM127.488 44.5989C128.557 44.5989 129.222 43.8016 129.222 42.5225V42.4987H127.736C126.705 42.4987 126.26 42.9296 126.26 43.5539C126.26 44.1782 126.701 44.5989 127.488 44.5989Z" fill="#022859"/>
<path d="M133.55 45.469L131.104 39.1887H132.172L134.038 44.1797L135.894 39.1887H136.962L133.56 48.0001H132.566L133.55 45.469Z" fill="#022859"/>
<path d="M138.612 40.1364H137.777V39.1898H138.612V38.3789C138.612 37.1744 139.362 36.4619 140.529 36.4619C140.922 36.4619 141.228 36.5366 141.438 36.6214L141.217 37.4696C141.156 37.4459 140.97 37.3576 140.651 37.3576C139.999 37.3576 139.606 37.663 139.596 38.5621V39.1898H141.17V40.1364H139.596V45.3853H138.612V40.1364Z" fill="#022859"/>
<path d="M143.034 36.856C143.428 36.856 143.723 37.1511 143.723 37.5312C143.723 37.9349 143.428 38.2335 143.034 38.2335C142.641 38.2335 142.346 37.9383 142.346 37.5312C142.346 37.1511 142.651 36.856 143.034 36.856ZM142.542 39.1903H143.526V45.3824H142.542V39.1903Z" fill="#022859"/>
<path d="M148.134 40.0151C147.041 40.0151 146.414 40.8022 146.414 42.0067V45.3861H145.43V39.194H146.363L146.414 40.0524C146.76 39.5129 147.37 39.082 148.33 39.082C149.619 39.082 150.749 39.8794 150.749 41.8846V45.3861H149.765V41.9694C149.765 40.6665 149.1 40.0151 148.13 40.0151H148.134Z" fill="#022859"/>
<path d="M152.115 42.3133C152.115 40.2232 153.493 39.0798 154.894 39.0798C155.85 39.0798 156.604 39.4971 157.068 40.2097V36.4978H158.052V45.3839H157.119L157.082 44.3999C156.614 45.1124 155.878 45.5298 154.894 45.5298C153.482 45.5298 152.115 44.3863 152.115 42.3099V42.3133ZM155.077 44.6103C156.207 44.6103 157.068 43.7994 157.068 42.2997C157.068 40.8 156.173 39.9891 155.077 39.9891C154.083 39.9891 153.113 40.7254 153.113 42.2997C153.113 43.874 154.083 44.6103 155.077 44.6103Z" fill="#022859"/>
<path d="M159.488 42.2883C159.488 40.446 160.73 39.082 162.375 39.082C164.021 39.082 165.201 40.3713 165.201 42.1526C165.201 42.2883 165.188 42.4342 165.178 42.5835H160.435C160.533 43.8728 161.307 44.6362 162.436 44.6362C163.308 44.6362 163.848 44.2189 164.217 43.5437L164.981 43.9746C164.54 44.8466 163.678 45.5354 162.426 45.5354C160.682 45.5354 159.488 44.2325 159.488 42.2917V42.2883ZM164.217 41.8099L164.204 41.7353C164.092 40.6665 163.417 39.9778 162.385 39.9778C161.354 39.9778 160.615 40.7038 160.455 41.8099H164.214H164.217Z" fill="#022859"/>
<path d="M166.604 39.192H167.536L167.587 40.2472C167.859 39.6331 168.374 39.0801 169.419 39.0801C169.569 39.0801 169.823 39.1174 169.935 39.1547L169.823 40.1251C169.725 40.1013 169.538 40.0878 169.368 40.0878C168.473 40.0878 167.587 40.7256 167.587 42.0048V45.3841H166.604V39.192Z" fill="#022859"/>
<defs>
<linearGradient id="paint0_linear_3307_56234" x1="3.69214" y1="34.7422" x2="37.8918" y2="-1.62347" gradientUnits="userSpaceOnUse">
<stop stop-color="#1578E4"/>
<stop offset="0.970243" stop-color="#C2BBFF"/>
</linearGradient>
</defs>
</svg>
